<svg xmlns="http://www.w3.org/2000/svg" xmlns:xlink="http://www.w3.org/1999/xlink" version="1.1" width="256" height="256" viewBox="0 0 256 256" xml:space="preserve">

<defs>
</defs>
<g style="stroke: none; stroke-width: 0; stroke-dasharray: none; stroke-linecap: butt; stroke-linejoin: miter; stroke-miterlimit: 10; fill: none; fill-rule: nonzero; opacity: 1;" transform="translate(1.4065934065934016 1.4065934065934016) scale(2.81 2.81)" >
	<path d="M 71.725 24.975 C 70.851 11.679 60.016 0.883 46.717 0.054 c -15.57 -0.971 -28.501 11.37 -28.501 26.73 c 0 4.201 0.967 8.175 2.691 11.714 l 0.001 -0.001 c 2.93 5.88 12.257 21.598 21.23 36.77 c 1.288 2.178 4.436 2.178 5.724 0 c 8.973 -15.172 18.301 -30.89 21.23 -36.77 l 0.001 0.001 C 71.063 34.455 72.044 29.843 71.725 24.975 z" style="stroke: none; stroke-width: 1; stroke-dasharray: none; stroke-linecap: butt; stroke-linejoin: miter; stroke-miterlimit: 10; fill: rgb(255,255,255); fill-rule: nonzero; opacity: 1;" transform=" matrix(1 0 0 1 0 0) " stroke-linecap="round" />
	<path d="M 45 90 c -14.361 0 -29.818 -3.666 -29.818 -11.713 c 0 -4.931 5.79 -8.688 16.305 -10.579 c 1.65 -0.308 3.226 0.799 3.523 2.448 c 0.297 1.649 -0.799 3.226 -2.449 3.523 c -8.16 1.468 -11.149 3.911 -11.315 4.635 c 0.357 1.511 8.201 5.62 23.753 5.62 s 23.396 -4.109 23.752 -5.671 c -0.165 -0.673 -3.153 -3.115 -11.314 -4.583 c -1.649 -0.296 -2.745 -1.873 -2.448 -3.523 c 0.296 -1.649 1.878 -2.749 3.523 -2.448 c 10.514 1.891 16.305 5.649 16.305 10.579 C 74.818 86.334 59.361 90 45 90 z" style="stroke: none; stroke-width: 1; stroke-dasharray: none; stroke-linecap: butt; stroke-linejoin: miter; stroke-miterlimit: 10; fill: rgb(255,255,255); fill-rule: nonzero; opacity: 1;" transform=" matrix(1 0 0 1 0 0) " stroke-linecap="round" />
	<path d="M 46.585 39.36 c -5.798 0.968 -10.836 -3.498 -10.836 -9.119 c 0 -5.704 5.467 -8.621 8.264 -14.054 c 0.418 -0.812 1.552 -0.821 1.97 -0.009 c 2.852 5.549 8.49 8.472 8.262 14.411 C 54.078 34.908 50.848 38.648 46.585 39.36 z" style="stroke: none; stroke-width: 1; stroke-dasharray: none; stroke-linecap: butt; stroke-linejoin: miter; stroke-miterlimit: 10; fill: rgb(146,143,143); fill-rule: nonzero; opacity: 1;" transform=" matrix(1 0 0 1 0 0) " stroke-linecap="round" />
</g>
</svg>