<svg xmlns="http://www.w3.org/2000/svg" xmlns:xlink="http://www.w3.org/1999/xlink" version="1.1" width="256" height="256" viewBox="0 0 256 256" xml:space="preserve">

<defs>
</defs>
<g style="stroke: none; stroke-width: 0; stroke-dasharray: none; stroke-linecap: butt; stroke-linejoin: miter; stroke-miterlimit: 10; fill: none; fill-rule: nonzero; opacity: 1;" transform="translate(1.4065934065934016 1.4065934065934016) scale(2.81 2.81)" >
	<path d="M 45 13.229 c -0.552 0 -1 -0.448 -1 -1 V 3.177 c 0 -0.552 0.448 -1 1 -1 s 1 0.448 1 1 v 9.053 C 46 12.782 45.552 13.229 45 13.229 z" style="stroke: none; stroke-width: 1; stroke-dasharray: none; stroke-linecap: butt; stroke-linejoin: miter; stroke-miterlimit: 10; fill: rgb(255,255,255); fill-rule: nonzero; opacity: 1;" transform=" matrix(1 0 0 1 0 0) " stroke-linecap="round" />
	<path d="M 10.053 48.177 H 1 c -0.552 0 -1 -0.447 -1 -1 s 0.448 -1 1 -1 h 9.053 c 0.552 0 1 0.447 1 1 S 10.605 48.177 10.053 48.177 z" style="stroke: none; stroke-width: 1; stroke-dasharray: none; stroke-linecap: butt; stroke-linejoin: miter; stroke-miterlimit: 10; fill: rgb(255,255,255); fill-rule: nonzero; opacity: 1;" transform=" matrix(1 0 0 1 0 0) " stroke-linecap="round" />
	<path d="M 89 48.177 h -9.053 c -0.553 0 -1 -0.447 -1 -1 s 0.447 -1 1 -1 H 89 c 0.553 0 1 0.447 1 1 S 89.553 48.177 89 48.177 z" style="stroke: none; stroke-width: 1; stroke-dasharray: none; stroke-linecap: butt; stroke-linejoin: miter; stroke-miterlimit: 10; fill: rgb(255,255,255); fill-rule: nonzero; opacity: 1;" transform=" matrix(1 0 0 1 0 0) " stroke-linecap="round" />
	<path d="M 69.711 23.465 c -0.256 0 -0.512 -0.098 -0.707 -0.293 c -0.391 -0.391 -0.391 -1.023 0 -1.414 l 6.401 -6.401 c 0.391 -0.391 1.023 -0.391 1.414 0 s 0.391 1.023 0 1.414 l -6.401 6.401 C 70.223 23.368 69.967 23.465 69.711 23.465 z" style="stroke: none; stroke-width: 1; stroke-dasharray: none; stroke-linecap: butt; stroke-linejoin: miter; stroke-miterlimit: 10; fill: rgb(255,255,255); fill-rule: nonzero; opacity: 1;" transform=" matrix(1 0 0 1 0 0) " stroke-linecap="round" />
	<path d="M 20.289 23.465 c -0.256 0 -0.512 -0.098 -0.707 -0.293 l -6.401 -6.401 c -0.391 -0.391 -0.391 -1.023 0 -1.414 s 1.023 -0.391 1.414 0 l 6.401 6.401 c 0.391 0.391 0.391 1.023 0 1.414 C 20.8 23.368 20.544 23.465 20.289 23.465 z" style="stroke: none; stroke-width: 1; stroke-dasharray: none; stroke-linecap: butt; stroke-linejoin: miter; stroke-miterlimit: 10; fill: rgb(255,255,255); fill-rule: nonzero; opacity: 1;" transform=" matrix(1 0 0 1 0 0) " stroke-linecap="round" />
	<path d="M 68.692 59.431 c 1.902 -3.67 2.984 -7.835 2.984 -12.255 c 0 -14.733 -11.943 -26.676 -26.676 -26.676 S 18.324 32.444 18.324 47.177 c 0 4.42 1.081 8.584 2.984 12.255 H 68.692 z" style="stroke: none; stroke-width: 1; stroke-dasharray: none; stroke-linecap: butt; stroke-linejoin: miter; stroke-miterlimit: 10; fill: rgb(255,190,0); fill-rule: nonzero; opacity: 1;" transform=" matrix(1 0 0 1 0 0) " stroke-linecap="round" />
	<path d="M 68.691 60.432 c -0.155 0 -0.313 -0.036 -0.459 -0.112 c -0.49 -0.254 -0.682 -0.857 -0.428 -1.348 c 1.905 -3.677 2.871 -7.645 2.871 -11.795 c 0 -12.736 -9.117 -23.404 -21.68 -25.367 c -0.546 -0.085 -0.919 -0.597 -0.834 -1.142 c 0.085 -0.545 0.587 -0.92 1.143 -0.833 c 13.542 2.115 23.371 13.615 23.371 27.343 c 0 4.474 -1.041 8.751 -3.096 12.715 C 69.402 60.235 69.053 60.432 68.691 60.432 z" style="stroke: none; stroke-width: 1; stroke-dasharray: none; stroke-linecap: butt; stroke-linejoin: miter; stroke-miterlimit: 10; fill: rgb(255,255,255); fill-rule: nonzero; opacity: 1;" transform=" matrix(1 0 0 1 0 0) " stroke-linecap="round" />
	<path d="M 45 87.823 H 32.841 c -2.922 0 -5.299 -2.377 -5.299 -5.299 s 2.377 -5.299 5.299 -5.299 h 39.787 c 1.819 0 3.299 -1.479 3.299 -3.299 V 73.73 c 0 -1.819 -1.479 -3.299 -3.299 -3.299 H 13.073 c -0.552 0 -1 -0.447 -1 -1 s 0.448 -1 1 -1 h 59.555 c 2.922 0 5.299 2.377 5.299 5.299 v 0.196 c 0 2.922 -2.377 5.299 -5.299 5.299 H 32.841 c -1.819 0 -3.299 1.479 -3.299 3.299 s 1.48 3.299 3.299 3.299 H 45 c 0.552 0 1 0.447 1 1 S 45.552 87.823 45 87.823 z" style="stroke: none; stroke-width: 1; stroke-dasharray: none; stroke-linecap: butt; stroke-linejoin: miter; stroke-miterlimit: 10; fill: rgb(255,255,255); fill-rule: nonzero; opacity: 1;" transform=" matrix(1 0 0 1 0 0) " stroke-linecap="round" />
	<path d="M 86.754 60.432 H 3.246 c -0.552 0 -1 -0.447 -1 -1 s 0.448 -1 1 -1 h 83.508 c 0.553 0 1 0.447 1 1 S 87.307 60.432 86.754 60.432 z" style="stroke: none; stroke-width: 1; stroke-dasharray: none; stroke-linecap: butt; stroke-linejoin: miter; stroke-miterlimit: 10; fill: rgb(255,255,255); fill-rule: nonzero; opacity: 1;" transform=" matrix(1 0 0 1 0 0) " stroke-linecap="round" />
	<path d="M 21.309 60.432 c -0.362 0 -0.711 -0.196 -0.889 -0.54 c -2.054 -3.964 -3.096 -8.241 -3.096 -12.715 c 0 -10.873 6.408 -20.783 16.325 -25.248 c 1.376 -0.62 2.854 -0.912 4.465 -0.929 C 42.461 21 46 24.539 46 28.888 v 13.543 c 0 0.552 -0.448 1 -1 1 s -1 -0.448 -1 -1 V 28.888 C 44 25.642 41.358 23 38.112 23 c -0.007 0 -0.014 0 -0.021 0 c -1.295 0 -2.512 0.253 -3.621 0.752 c -9.201 4.143 -15.146 13.337 -15.146 23.425 c 0 4.15 0.966 8.118 2.871 11.795 c 0.254 0.49 0.063 1.094 -0.428 1.348 C 21.621 60.396 21.463 60.432 21.309 60.432 z" style="stroke: none; stroke-width: 1; stroke-dasharray: none; stroke-linecap: butt; stroke-linejoin: miter; stroke-miterlimit: 10; fill: rgb(255,255,255); fill-rule: nonzero; opacity: 1;" transform=" matrix(1 0 0 1 0 0) " stroke-linecap="round" />
	<path d="M 45 43.431 c -0.256 0 -0.512 -0.098 -0.707 -0.293 l -5.901 -5.9 c -0.391 -0.391 -0.391 -1.023 0 -1.414 s 1.023 -0.391 1.414 0 L 45 41.017 l 5.193 -5.193 c 0.391 -0.391 1.023 -0.391 1.414 0 s 0.391 1.023 0 1.414 l -5.9 5.9 C 45.512 43.333 45.256 43.431 45 43.431 z" style="stroke: none; stroke-width: 1; stroke-dasharray: none; stroke-linecap: butt; stroke-linejoin: miter; stroke-miterlimit: 10; fill: rgb(255,255,255); fill-rule: nonzero; opacity: 1;" transform=" matrix(1 0 0 1 0 0) " stroke-linecap="round" />
</g>
</svg>